<mxfile host="app.diagrams.net" agent="Mozilla/5.0 (Macintosh; Intel Mac OS X 10_15_7) AppleWebKit/537.36 (KHTML, like Gecko) Chrome/135.0.0.0 Safari/537.36" version="26.2.14">
  <diagram name="第 1 页" id="5m0DD1IxrQxrbZgEeg06">
    <mxGraphModel dx="1234" dy="790" grid="1" gridSize="10" guides="1" tooltips="1" connect="1" arrows="1" fold="1" page="1" pageScale="1" pageWidth="827" pageHeight="1169" math="0" shadow="0">
      <root>
        <mxCell id="0" />
        <mxCell id="1" parent="0" />
        <mxCell id="dp8KcP2n8Qh-5-MDvq2I-18" style="edgeStyle=orthogonalEdgeStyle;rounded=0;orthogonalLoop=1;jettySize=auto;html=1;entryX=0;entryY=0.5;entryDx=0;entryDy=0;" edge="1" parent="1" source="dp8KcP2n8Qh-5-MDvq2I-1" target="dp8KcP2n8Qh-5-MDvq2I-14">
          <mxGeometry relative="1" as="geometry" />
        </mxCell>
        <mxCell id="dp8KcP2n8Qh-5-MDvq2I-1" value="P1" style="rounded=0;whiteSpace=wrap;html=1;" vertex="1" parent="1">
          <mxGeometry x="80" y="140" width="120" height="60" as="geometry" />
        </mxCell>
        <mxCell id="dp8KcP2n8Qh-5-MDvq2I-19" style="edgeStyle=orthogonalEdgeStyle;rounded=0;orthogonalLoop=1;jettySize=auto;html=1;" edge="1" parent="1" source="dp8KcP2n8Qh-5-MDvq2I-2">
          <mxGeometry relative="1" as="geometry">
            <mxPoint x="380" y="280" as="targetPoint" />
          </mxGeometry>
        </mxCell>
        <mxCell id="dp8KcP2n8Qh-5-MDvq2I-2" value="P2" style="rounded=0;whiteSpace=wrap;html=1;" vertex="1" parent="1">
          <mxGeometry x="80" y="220" width="120" height="60" as="geometry" />
        </mxCell>
        <mxCell id="dp8KcP2n8Qh-5-MDvq2I-17" style="edgeStyle=orthogonalEdgeStyle;rounded=0;orthogonalLoop=1;jettySize=auto;html=1;entryX=0;entryY=0.5;entryDx=0;entryDy=0;" edge="1" parent="1" source="dp8KcP2n8Qh-5-MDvq2I-5" target="dp8KcP2n8Qh-5-MDvq2I-14">
          <mxGeometry relative="1" as="geometry" />
        </mxCell>
        <mxCell id="dp8KcP2n8Qh-5-MDvq2I-5" value="P0" style="rounded=0;whiteSpace=wrap;html=1;" vertex="1" parent="1">
          <mxGeometry x="80" y="60" width="120" height="60" as="geometry" />
        </mxCell>
        <mxCell id="dp8KcP2n8Qh-5-MDvq2I-27" style="edgeStyle=orthogonalEdgeStyle;rounded=0;orthogonalLoop=1;jettySize=auto;html=1;" edge="1" parent="1" source="dp8KcP2n8Qh-5-MDvq2I-7">
          <mxGeometry relative="1" as="geometry">
            <mxPoint x="440" y="530" as="targetPoint" />
          </mxGeometry>
        </mxCell>
        <mxCell id="dp8KcP2n8Qh-5-MDvq2I-7" value="P9" style="rounded=0;whiteSpace=wrap;html=1;" vertex="1" parent="1">
          <mxGeometry x="80" y="780" width="120" height="60" as="geometry" />
        </mxCell>
        <mxCell id="dp8KcP2n8Qh-5-MDvq2I-26" style="edgeStyle=orthogonalEdgeStyle;rounded=0;orthogonalLoop=1;jettySize=auto;html=1;" edge="1" parent="1" source="dp8KcP2n8Qh-5-MDvq2I-8">
          <mxGeometry relative="1" as="geometry">
            <mxPoint x="440" y="530" as="targetPoint" />
          </mxGeometry>
        </mxCell>
        <mxCell id="dp8KcP2n8Qh-5-MDvq2I-8" value="P8" style="rounded=0;whiteSpace=wrap;html=1;" vertex="1" parent="1">
          <mxGeometry x="80" y="700" width="120" height="60" as="geometry" />
        </mxCell>
        <mxCell id="dp8KcP2n8Qh-5-MDvq2I-20" style="edgeStyle=orthogonalEdgeStyle;rounded=0;orthogonalLoop=1;jettySize=auto;html=1;entryX=0;entryY=0.5;entryDx=0;entryDy=0;" edge="1" parent="1" source="dp8KcP2n8Qh-5-MDvq2I-9" target="dp8KcP2n8Qh-5-MDvq2I-14">
          <mxGeometry relative="1" as="geometry" />
        </mxCell>
        <mxCell id="dp8KcP2n8Qh-5-MDvq2I-9" value="P3" style="rounded=0;whiteSpace=wrap;html=1;" vertex="1" parent="1">
          <mxGeometry x="80" y="300" width="120" height="60" as="geometry" />
        </mxCell>
        <mxCell id="dp8KcP2n8Qh-5-MDvq2I-25" style="edgeStyle=orthogonalEdgeStyle;rounded=0;orthogonalLoop=1;jettySize=auto;html=1;entryX=0.5;entryY=1;entryDx=0;entryDy=0;" edge="1" parent="1" source="dp8KcP2n8Qh-5-MDvq2I-10" target="dp8KcP2n8Qh-5-MDvq2I-16">
          <mxGeometry relative="1" as="geometry" />
        </mxCell>
        <mxCell id="dp8KcP2n8Qh-5-MDvq2I-10" value="P7" style="rounded=0;whiteSpace=wrap;html=1;" vertex="1" parent="1">
          <mxGeometry x="80" y="620" width="120" height="60" as="geometry" />
        </mxCell>
        <mxCell id="dp8KcP2n8Qh-5-MDvq2I-21" style="edgeStyle=orthogonalEdgeStyle;rounded=0;orthogonalLoop=1;jettySize=auto;html=1;entryX=0;entryY=0.5;entryDx=0;entryDy=0;" edge="1" parent="1" source="dp8KcP2n8Qh-5-MDvq2I-11" target="dp8KcP2n8Qh-5-MDvq2I-15">
          <mxGeometry relative="1" as="geometry" />
        </mxCell>
        <mxCell id="dp8KcP2n8Qh-5-MDvq2I-11" value="P4" style="rounded=0;whiteSpace=wrap;html=1;" vertex="1" parent="1">
          <mxGeometry x="80" y="380" width="120" height="60" as="geometry" />
        </mxCell>
        <mxCell id="dp8KcP2n8Qh-5-MDvq2I-22" style="edgeStyle=orthogonalEdgeStyle;rounded=0;orthogonalLoop=1;jettySize=auto;html=1;entryX=0;entryY=0.5;entryDx=0;entryDy=0;" edge="1" parent="1" source="dp8KcP2n8Qh-5-MDvq2I-12" target="dp8KcP2n8Qh-5-MDvq2I-15">
          <mxGeometry relative="1" as="geometry" />
        </mxCell>
        <mxCell id="dp8KcP2n8Qh-5-MDvq2I-12" value="P5" style="rounded=0;whiteSpace=wrap;html=1;" vertex="1" parent="1">
          <mxGeometry x="80" y="460" width="120" height="60" as="geometry" />
        </mxCell>
        <mxCell id="dp8KcP2n8Qh-5-MDvq2I-23" style="edgeStyle=orthogonalEdgeStyle;rounded=0;orthogonalLoop=1;jettySize=auto;html=1;entryX=0;entryY=0.5;entryDx=0;entryDy=0;" edge="1" parent="1" source="dp8KcP2n8Qh-5-MDvq2I-13" target="dp8KcP2n8Qh-5-MDvq2I-15">
          <mxGeometry relative="1" as="geometry" />
        </mxCell>
        <mxCell id="dp8KcP2n8Qh-5-MDvq2I-13" value="P6" style="rounded=0;whiteSpace=wrap;html=1;" vertex="1" parent="1">
          <mxGeometry x="80" y="540" width="120" height="60" as="geometry" />
        </mxCell>
        <mxCell id="dp8KcP2n8Qh-5-MDvq2I-14" value="C0" style="rounded=0;whiteSpace=wrap;html=1;" vertex="1" parent="1">
          <mxGeometry x="380" y="250" width="120" height="60" as="geometry" />
        </mxCell>
        <mxCell id="dp8KcP2n8Qh-5-MDvq2I-15" value="C1" style="rounded=0;whiteSpace=wrap;html=1;" vertex="1" parent="1">
          <mxGeometry x="380" y="360" width="120" height="60" as="geometry" />
        </mxCell>
        <mxCell id="dp8KcP2n8Qh-5-MDvq2I-16" value="C2" style="rounded=0;whiteSpace=wrap;html=1;" vertex="1" parent="1">
          <mxGeometry x="380" y="470" width="120" height="60" as="geometry" />
        </mxCell>
      </root>
    </mxGraphModel>
  </diagram>
</mxfile>
